<svg width="24" height="22" viewBox="0 0 24 22" fill="none" xmlns="http://www.w3.org/2000/svg">
<path d="M22.0619 2.4506C20.8052 1.19982 19.1414 0.516191 17.3657 0.516191C15.59 0.516191 13.9212 1.20488 12.6644 2.45567L12.0081 3.10891L11.3416 2.44554C10.0848 1.19475 8.4109 0.500999 6.6352 0.500999C4.86458 0.500999 3.19573 1.18969 1.94409 2.43541C0.687361 3.68619 -0.00460234 5.34715 0.000485624 7.11446C0.000485624 8.88176 0.697537 10.5377 1.95427 11.7884L11.5095 21.2984C11.6418 21.4301 11.8198 21.501 11.9928 21.501C12.1658 21.501 12.3439 21.4352 12.4762 21.3035L22.0517 11.8087C23.3085 10.5579 24.0004 8.89695 24.0004 7.12965C24.0055 5.36234 23.3186 3.70139 22.0619 2.4506V2.4506ZM21.085 10.8415L11.9928 19.8552L2.92098 10.8263C1.92374 9.83377 1.37424 8.51716 1.37424 7.11446C1.37424 5.71175 1.91865 4.39514 2.91589 3.40768C3.90804 2.42022 5.23092 1.87332 6.6352 1.87332C8.04456 1.87332 9.37252 2.42022 10.3698 3.41274L11.5196 4.55718C11.7893 4.82557 12.2218 4.82557 12.4914 4.55718L13.6312 3.42287C14.6284 2.43035 15.9564 1.88344 17.3606 1.88344C18.7649 1.88344 20.0878 2.43035 21.085 3.41781C22.0823 4.41033 22.6267 5.72695 22.6267 7.12965C22.6318 8.53235 22.0823 9.84896 21.085 10.8415V10.8415Z" fill="#ED6B33"/>
</svg>
