<?xml version="1.0" encoding="utf-8"?>
<!-- Generator: Adobe Illustrator 22.1.0, SVG Export Plug-In . SVG Version: 6.00 Build 0)  -->
<svg version="1.1" id="Слой_1" xmlns="http://www.w3.org/2000/svg" xmlns:xlink="http://www.w3.org/1999/xlink" x="0px" y="0px"
	 viewBox="0 0 26 23" style="enable-background:new 0 0 26 23;" xml:space="preserve">
<style >
	.st0{fill:#ED6B33;}
</style>
<path id="Shape_1_копия" class="st0" d="M18.2,21.7H7.8c-0.4,0-0.7,0.3-0.7,0.7c0,0.4,0.3,0.6,0.7,0.6h10.4
	C18.3,22.8,17.3,22.3,18.2,21.7z M22.1,3.2l-2.5,0l-6-1.2V0.7C13.7,0.3,13.4,0,13,0s-0.7,0.3-0.7,0.6c0,0,0,0,0,0v1.4L6.5,3.2H3.9
	c-0.4,0-0.7,0.3-0.7,0.6c0,0.4,0.3,0.7,0.7,0.7l0,0l2.7,0l5.7-1.1v16.4c0,0.4,0.3,0.7,0.6,0.7s0.7-0.3,0.7-0.6c0,0,0,0,0,0V3.4
	l5.9,1.2h2.6c0.4,0,0.7-0.3,0.7-0.7C22.8,3.5,22.5,3.2,22.1,3.2z M3.9,5.9C2.6,6.5,0,14.2,0,15.6s1.7,2.6,3.9,2.6s3.9-1.2,3.9-2.6
	S5.2,6.5,3.9,5.9z M3.9,16.9c-1.6,0-2.6-0.8-2.6-1.3C1.9,13,2.7,10.4,3.9,8c1.2,2.4,2,5,2.6,7.6C6.5,16.1,5.5,16.9,3.9,16.9
	L3.9,16.9z M22.1,5.9c-1.3,0.6-3.9,8.3-3.9,9.8s1.7,2.6,3.9,2.6S26,17,26,15.6S23.4,6.5,22.1,5.9z M22.1,16.9
	c-1.6,0-2.6-0.8-2.6-1.3c0.6-2.6,1.4-5.2,2.6-7.6c1.2,2.4,2,5,2.6,7.6C24.7,16.1,23.7,16.9,22.1,16.9L22.1,16.9z"/>
</svg>
