<svg width="24" height="21" viewBox="0 0 24 21" fill="none" xmlns="http://www.w3.org/2000/svg">
<path fill-rule="evenodd" clip-rule="evenodd" d="M16.8 19.813H7.19999C7.04086 19.813 6.88827 19.8756 6.77575 19.9869C6.66323 20.0982 6.59999 20.2492 6.59999 20.4066C6.59999 20.564 6.66323 20.7148 6.77575 20.8261C6.88827 20.9374 7.04086 21 7.19999 21H16.8C16.9591 21 17.1117 20.9374 17.2243 20.8261C17.3368 20.7148 17.4 20.564 17.4 20.4066C17.4 20.2492 17.3368 20.0982 17.2243 19.9869C17.1117 19.8756 16.9591 19.813 16.8 19.813V19.813ZM20.4 2.96739L18.1172 2.97653L12.6 1.89006V0.593389C12.6 0.435989 12.5368 0.285169 12.4243 0.173871C12.3117 0.0625718 12.1591 0 12 0C11.8409 0 11.6883 0.0625718 11.5757 0.173871C11.4632 0.285169 11.4 0.435989 11.4 0.593389V1.89006L6 2.96739H3.59999C3.44086 2.96739 3.28825 3.02996 3.17572 3.14126C3.0632 3.25256 3 3.40338 3 3.56078C3 3.71818 3.0632 3.86922 3.17572 3.98052C3.28825 4.09182 3.44086 4.15439 3.59999 4.15439L6.11724 4.14525L11.4 3.09512V18.0326C11.4 18.19 11.4632 18.3411 11.5757 18.4524C11.6883 18.5636 11.8409 18.626 12 18.626C12.1591 18.626 12.3117 18.5636 12.4243 18.4524C12.5368 18.3411 12.6 18.19 12.6 18.0326V3.09512L18 4.15439H20.4C20.4788 4.15439 20.5568 4.13897 20.6296 4.10914C20.7024 4.07932 20.7686 4.03563 20.8243 3.98052C20.88 3.92541 20.9242 3.85993 20.9543 3.78793C20.9845 3.71592 21 3.63872 21 3.56078C21 3.48284 20.9845 3.40586 20.9543 3.33386C20.9242 3.26185 20.88 3.19637 20.8243 3.14126C20.7686 3.08615 20.7024 3.04247 20.6296 3.01264C20.5568 2.98282 20.4788 2.96739 20.4 2.96739V2.96739ZM3.59999 5.34139C2.39999 5.93487 0 12.9288 0 14.2436C0 15.5584 1.61169 16.6173 3.59999 16.6173C5.5883 16.6173 7.19999 15.5584 7.19999 14.2436C7.19999 12.9288 4.79999 5.93487 3.59999 5.34139ZM3.59999 15.4303C2.13507 15.4303 1.19999 14.7275 1.19999 14.2436C1.72109 11.8452 2.52667 9.5159 3.59999 7.30435C4.67332 9.5159 5.4789 11.8452 6 14.2436C6 14.7275 5.06399 15.4303 3.59999 15.4303ZM20.4 5.34139C19.2 5.93487 16.8 12.9288 16.8 14.2436C16.8 15.5584 18.4117 16.6173 20.4 16.6173C22.3883 16.6173 24 15.5584 24 14.2436C24 12.9288 21.6 5.93487 20.4 5.34139V5.34139ZM20.4 15.4303C18.9351 15.4303 18 14.7275 18 14.2436C18.5215 11.8453 19.3271 9.51607 20.4 7.30435C21.4737 9.51573 22.2793 11.845 22.8 14.2436C22.8 14.7275 21.8649 15.4303 20.4 15.4303V15.4303Z" fill="#6F7379"/>
</svg>
